# xmcd
#
# Track frame offsets:
#	150
#	16037
#	33254
#	47101
#	62133
#	78131
#	93647
#	109865
#	126422
#	145759
#	160464
#	179889
#	193805
#	210556
#	226239
#	245672
#	264734
#	282452
#	300392
#	317035
#	331025
#
# Disc length: 4747 seconds
#
# Revision: 1
# Processed by: cddbd v1.5.2PL0 Copyright (c) Steve Scherf et al.
# Submitted via: audiograbber 1.83.01
#
DISCID=30128915
DTITLE=Various Artist - Essential Songs 2008
DYEAR=2007
DGENRE=Pop
TTITLE0=Mika - Happy Ending
TTITLE1=Keane - Somewhere Only We Know
TTITLE2=Timbaland feat. One Republic - Apologize
TTITLE3=Paolo Nutini - New Shoes
TTITLE4=Amy McDonald - Mr. Rock and Roll
TTITLE5=Mutya Buena - Real Girl
TTITLE6=The Twang - Either Way
TTITLE7=Travis - Sing
TTITLE8=Feeder - Just The Way I'm Feeling
TTITLE9=The Killers - Somebody Told Me
TTITLE10=Embrace - Ashes
TTITLE11=Gabreielle feat. Paul Weller - Why
TTITLE12=Nick Drake - Northern Sky
TTITLE13=The Cure - Just Like Heaven
TTITLE14=Ian Brown - F.E.A.R.
TTITLE15=The Cranberries - Dreams
TTITLE16=Dodgy - Good Enough
TTITLE17=James - Sit Down
TTITLE18=Aztec Camera - Somewhere In My Heart
TTITLE19=Shed 7 - Chasing Rainbows
TTITLE20=Elton John - Don't Let The Sun Go Down On Me
EXTD=
EXTT0=
EXTT1=
EXTT2=
EXTT3=
EXTT4=
EXTT5=
EXTT6=
EXTT7=
EXTT8=
EXTT9=
EXTT10=
EXTT11=
EXTT12=
EXTT13=
EXTT14=
EXTT15=
EXTT16=
EXTT17=
EXTT18=
EXTT19=
EXTT20=
PLAYORDER=
